<?xml version="1.0" encoding="UTF-8"?>
<svg xmlns="http://www.w3.org/2000/svg" xmlns:xlink="http://www.w3.org/1999/xlink" width="80px" height="80px" viewBox="0 0 80 80" version="1.1">
<g id="surface1">
<path style=" stroke:none;fill-rule:evenodd;fill:rgb(100%,100%,100%);fill-opacity:1;" d="M 53.332031 11.667969 C 50.574219 11.667969 48.332031 13.90625 48.332031 16.667969 C 48.332031 18.84375 49.726562 20.695312 51.667969 21.378906 L 51.667969 25 L 23.332031 25 C 20.574219 25 18.332031 27.238281 18.332031 30 L 18.332031 50 C 18.332031 52.761719 20.574219 55 23.332031 55 L 28.332031 55 L 28.332031 58.621094 C 26.394531 59.304688 25 61.15625 25 63.332031 C 25 66.09375 27.238281 68.332031 30 68.332031 C 32.761719 68.332031 35 66.09375 35 63.332031 C 35 61.15625 33.605469 59.304688 31.667969 58.621094 L 31.667969 55 L 56.667969 55 C 59.425781 55 61.667969 52.761719 61.667969 50 L 61.667969 44.714844 C 63.605469 44.027344 65 42.179688 65 40 C 65 37.820312 63.605469 35.972656 61.667969 35.285156 L 61.667969 30 C 61.667969 27.238281 59.425781 25 56.667969 25 L 55 25 L 55 21.378906 C 56.941406 20.695312 58.332031 18.84375 58.332031 16.667969 C 58.332031 13.90625 56.09375 11.667969 53.332031 11.667969 Z M 51.667969 16.667969 C 51.667969 15.746094 52.414062 15 53.332031 15 C 54.253906 15 55 15.746094 55 16.667969 C 55 17.585938 54.253906 18.332031 53.332031 18.332031 C 52.414062 18.332031 51.667969 17.585938 51.667969 16.667969 Z M 58.332031 35 L 58.332031 30 C 58.332031 29.078125 57.585938 28.332031 56.667969 28.332031 L 23.332031 28.332031 C 22.414062 28.332031 21.667969 29.078125 21.667969 30 L 21.667969 50 C 21.667969 50.921875 22.414062 51.667969 23.332031 51.667969 L 56.667969 51.667969 C 57.585938 51.667969 58.332031 50.921875 58.332031 50 L 58.332031 45 L 46.667969 45 C 43.90625 45 41.667969 42.761719 41.667969 40 C 41.667969 37.238281 43.90625 35 46.667969 35 Z M 30 61.667969 C 29.078125 61.667969 28.332031 62.414062 28.332031 63.332031 C 28.332031 64.253906 29.078125 65 30 65 C 30.921875 65 31.667969 64.253906 31.667969 63.332031 C 31.667969 62.414062 30.921875 61.667969 30 61.667969 Z M 45 40 C 45 39.078125 45.746094 38.332031 46.667969 38.332031 L 60 38.332031 C 60.921875 38.332031 61.667969 39.078125 61.667969 40 C 61.667969 40.921875 60.921875 41.667969 60 41.667969 L 46.667969 41.667969 C 45.746094 41.667969 45 40.921875 45 40 Z M 45 40 "/>
</g>
</svg>
